<svg width="700" height="387" viewBox="0 0 700 387" fill="none" xmlns="http://www.w3.org/2000/svg">
<g clip-path="url(#clip0_1_3)">
<path d="M444.999 330.886H60.0006C57.8794 330.884 55.8459 330.04 54.346 328.54C52.8462 327.04 52.0025 325.007 52 322.886V98.7546C52.0024 96.6335 52.8461 94.6001 54.3459 93.1002C55.8457 91.6004 57.8792 90.7567 60.0003 90.7543H445C447.121 90.7568 449.154 91.6005 450.654 93.1003C452.154 94.6002 452.998 96.6338 453 98.7549V322.886C452.997 325.007 452.154 327.04 450.654 328.54C449.154 330.04 447.121 330.884 444.999 330.886Z" fill="#BABABA" stroke="#FF3D7A"/>
<path d="M37.5 360.754V361.254H38H467H467.5V360.754V76.2543V76.2538C467.498 74.1329 466.654 72.0995 465.154 70.5998C463.655 69.1002 461.621 68.2566 459.501 68.2543H459.5L45.5 68.2543L45.4995 68.2543C43.3786 68.2566 41.3452 69.1002 39.8455 70.5998C38.3459 72.0995 37.5023 74.1329 37.5 76.2538V76.2543V360.754ZM468.5 362.254H36.5V76.2546C36.5028 73.8684 37.4519 71.5808 39.1392 69.8935C40.8265 68.2062 43.1141 67.2571 45.5003 67.2543H459.5C461.886 67.2571 464.174 68.2062 465.861 69.8935C467.548 71.5808 468.497 73.8686 468.5 76.2549V362.254Z" fill="#CCCCCC" stroke="#FF3D7A"/>
<path d="M252.5 83.2543C254.709 83.2543 256.5 81.4634 256.5 79.2543C256.5 77.0452 254.709 75.2543 252.5 75.2543C250.291 75.2543 248.5 77.0452 248.5 79.2543C248.5 81.4634 250.291 83.2543 252.5 83.2543Z" fill="#E6E6E6"/>
<path d="M349 283.821H156C153.746 283.818 151.586 282.922 149.992 281.328C148.399 279.735 147.503 277.574 147.5 275.321V146.321C147.503 144.067 148.399 141.907 149.992 140.313C151.586 138.72 153.746 137.823 156 137.821H349C351.254 137.823 353.414 138.72 355.007 140.313C356.601 141.907 357.497 144.067 357.5 146.321V275.321C357.497 277.574 356.601 279.735 355.007 281.328C353.414 282.922 351.254 283.818 349 283.821Z" fill="white"/>
<path d="M187.75 192.82C186.168 192.82 184.621 192.351 183.305 191.472C181.99 190.593 180.964 189.343 180.359 187.882C179.753 186.42 179.595 184.811 179.904 183.259C180.212 181.708 180.974 180.282 182.093 179.163C183.212 178.045 184.637 177.283 186.189 176.974C187.741 176.665 189.35 176.824 190.811 177.429C192.273 178.035 193.523 179.06 194.402 180.376C195.281 181.691 195.75 183.238 195.75 184.82C195.748 186.941 194.904 188.975 193.404 190.474C191.904 191.974 189.871 192.818 187.75 192.82Z" fill="#CCCCCC"/>
<path d="M187.75 218.82C186.168 218.82 184.621 218.351 183.305 217.472C181.99 216.593 180.964 215.343 180.359 213.882C179.753 212.42 179.595 210.811 179.904 209.259C180.212 207.708 180.974 206.282 182.093 205.163C183.212 204.045 184.637 203.283 186.189 202.974C187.741 202.665 189.35 202.824 190.811 203.429C192.273 204.035 193.523 205.06 194.402 206.376C195.281 207.691 195.75 209.238 195.75 210.82C195.748 212.941 194.904 214.975 193.404 216.474C191.904 217.974 189.871 218.818 187.75 218.82Z" fill="#FF3D7A"/>
<path d="M187.75 244.82C186.168 244.82 184.621 244.351 183.305 243.472C181.99 242.593 180.964 241.343 180.359 239.882C179.753 238.42 179.595 236.811 179.904 235.259C180.212 233.708 180.974 232.282 182.093 231.163C183.212 230.045 184.637 229.283 186.189 228.974C187.741 228.665 189.35 228.824 190.811 229.429C192.273 230.035 193.523 231.06 194.402 232.376C195.281 233.691 195.75 235.238 195.75 236.82C195.748 238.941 194.904 240.975 193.404 242.474C191.904 243.974 189.871 244.818 187.75 244.82Z" fill="#FF3D7A"/>
<path d="M225.75 178.32C224.026 178.32 222.373 179.005 221.154 180.224C219.935 181.443 219.25 183.096 219.25 184.82C219.25 186.544 219.935 188.197 221.154 189.416C222.373 190.635 224.026 191.32 225.75 191.32H318.75C320.474 191.32 322.127 190.635 323.346 189.416C324.565 188.197 325.25 186.544 325.25 184.82C325.25 183.096 324.565 181.443 323.346 180.224C322.127 179.005 320.474 178.32 318.75 178.32H225.75Z" fill="#CCCCCC"/>
<path d="M225.75 204.32C224.026 204.32 222.373 205.005 221.154 206.224C219.935 207.443 219.25 209.096 219.25 210.82C219.25 212.544 219.935 214.197 221.154 215.416C222.373 216.635 224.026 217.32 225.75 217.32H318.75C320.474 217.32 322.127 216.635 323.346 215.416C324.565 214.197 325.25 212.544 325.25 210.82C325.25 209.096 324.565 207.443 323.346 206.224C322.127 205.005 320.474 204.32 318.75 204.32H225.75Z" fill="#FF3D7A"/>
<path d="M225.75 230.32C224.026 230.32 222.373 231.005 221.154 232.224C219.935 233.443 219.25 235.096 219.25 236.82C219.25 238.544 219.935 240.197 221.154 241.416C222.373 242.635 224.026 243.32 225.75 243.32H318.75C320.474 243.32 322.127 242.635 323.346 241.416C324.565 240.197 325.25 238.544 325.25 236.82C325.25 235.096 324.565 233.443 323.346 232.224C322.127 231.005 320.474 230.32 318.75 230.32H225.75Z" fill="#FF3D7A"/>
<path d="M663.288 375.328L651.03 375.122L645.991 327.743L664.083 328.047L663.288 375.328Z" fill="#FFB8B8"/>
<path d="M642.333 371.472L665.974 371.87L665.724 386.754L627.198 386.107C627.231 384.152 627.649 382.223 628.427 380.43C629.206 378.637 630.33 377.014 631.735 375.655C633.14 374.296 634.8 373.227 636.618 372.51C638.437 371.792 640.379 371.439 642.333 371.472Z" fill="#2F2E41"/>
<path d="M541.641 375.216L530.277 370.616L542.612 324.594L559.384 331.384L541.641 375.216Z" fill="#FFB8B8"/>
<path d="M523.474 364.083L545.39 372.955L539.804 386.754L504.089 372.297C505.57 368.637 508.445 365.716 512.08 364.175C515.716 362.635 519.814 362.602 523.474 364.083Z" fill="#2F2E41"/>
<path d="M663.136 366.919L663.135 366.926H648.029L621.106 224.832L620.835 223.403L620.17 224.697L547.396 366.257L532.189 358.654L547.094 293.07L582.98 198.372L660.053 185.711C660.59 186.487 661.105 187.761 661.584 189.528C662.108 191.465 662.572 193.937 662.981 196.871C663.798 202.737 664.385 210.408 664.792 219.256C665.604 236.949 665.689 259.306 665.44 281.257C665.192 303.207 664.611 324.744 664.091 340.794C663.832 348.819 663.588 355.472 663.408 360.118C663.319 362.441 663.245 364.263 663.194 365.504C663.184 365.77 663.174 366.009 663.165 366.221C663.153 366.503 663.143 366.736 663.136 366.919Z" fill="#2F2E41" stroke="#FF3D7A"/>
<path d="M537.984 301.938C553.543 301.938 566.156 289.325 566.156 273.766C566.156 258.207 553.543 245.594 537.984 245.594C522.425 245.594 509.812 258.207 509.812 273.766C509.812 289.325 522.425 301.938 537.984 301.938Z" fill="#FF3D7A"/>
<path d="M535.636 286.223L526.695 274.726L531.895 270.682L536.128 276.125L550.43 261.028L555.213 265.559L535.636 286.223Z" fill="white"/>
<path d="M600.114 66.4255C618.34 66.4255 633.114 51.6509 633.114 33.4255C633.114 15.2001 618.34 0.425507 600.114 0.425507C581.889 0.425507 567.114 15.2001 567.114 33.4255C567.114 51.6509 581.889 66.4255 600.114 66.4255Z" fill="#2F2E41"/>
<path d="M553.838 257.536L553.835 257.538C551.585 258.676 548.995 258.949 546.557 258.305C544.119 257.662 542.001 256.146 540.606 254.045C539.21 251.945 538.634 249.405 538.986 246.908C539.338 244.411 540.593 242.13 542.515 240.497L542.663 240.371L542.687 240.179L560.015 103.624L582.338 103.918L557.41 241.877L557.372 242.09L557.501 242.263C558.393 243.466 559.01 244.85 559.31 246.317C559.61 247.784 559.584 249.299 559.235 250.755C558.886 252.211 558.221 253.573 557.289 254.745C556.356 255.916 555.178 256.869 553.838 257.536Z" fill="#FFB8B8" stroke="#FF3D7A"/>
<path d="M697.091 230.65L697.09 230.653C695.739 232.74 693.68 234.268 691.292 234.956C688.904 235.644 686.347 235.445 684.094 234.396C681.84 233.348 680.042 231.519 679.031 229.249C678.02 226.978 677.864 224.419 678.591 222.042L678.648 221.857L678.565 221.681L619.552 97.3284C621.834 95.9823 624.37 95.12 627.003 94.7971C629.783 94.4561 632.604 94.725 635.27 95.585C637.936 96.445 640.382 97.8754 642.439 99.7769C644.496 101.678 646.114 104.005 647.18 106.595L691.881 215.175L691.963 215.375L692.166 215.452C693.599 215.997 694.892 216.856 695.948 217.967C697.005 219.078 697.799 220.412 698.272 221.87C698.745 223.329 698.884 224.875 698.68 226.395C698.475 227.914 697.933 229.368 697.091 230.65Z" fill="#FFB8B8" stroke="#FF3D7A"/>
<path d="M600.768 70.4196C614.333 70.4196 625.329 59.4233 625.329 45.8586C625.329 32.2939 614.333 21.2975 600.768 21.2975C587.203 21.2975 576.207 32.2939 576.207 45.8586C576.207 59.4233 587.203 70.4196 600.768 70.4196Z" fill="#FFB8B8"/>
<path d="M636.471 86.1233L636.472 86.1236C639.586 87.5754 642.358 89.6692 644.606 92.2678C646.854 94.8663 648.527 97.9108 649.515 101.201L661.05 139.783L646.261 154.572L646.017 154.816L646.159 155.131L659.975 185.725C659.91 185.763 659.836 185.807 659.755 185.854C659.36 186.086 658.776 186.424 658.024 186.847C656.519 187.694 654.342 188.882 651.654 190.245C646.276 192.973 638.861 196.4 630.702 199.203C622.539 202.007 613.655 204.178 605.335 204.41C597.07 204.641 589.411 202.958 583.553 198.14L569.096 146.79L569.018 146.515L568.742 146.442L550.183 141.558L556.59 103.498L556.59 103.497C557.26 99.4622 558.942 95.6635 561.479 92.4557C564.015 89.248 567.324 86.7359 571.095 85.1541C585.186 79.2879 609.487 73.5005 636.471 86.1233Z" fill="#CCCCCC" stroke="#FF3D7A"/>
<path d="M577.796 27.6954C587.388 33.5507 598.202 37.1138 609.395 38.1073L606.065 34.1163C608.49 35.013 611.042 35.5198 613.626 35.6178C614.919 35.6553 616.204 35.389 617.376 34.8404C618.548 34.2917 619.575 33.476 620.375 32.4586C621.028 31.4021 621.417 30.2033 621.506 28.9643C621.596 27.7254 621.385 26.4832 620.891 25.3436C619.876 23.0705 618.296 21.095 616.301 19.6051C612.766 16.8086 608.594 14.9302 604.157 14.1372C599.72 13.3442 595.156 13.6613 590.871 15.0601C587.932 15.9386 585.299 17.6271 583.275 19.9324C582.28 21.0936 581.589 22.4837 581.264 23.9779C580.939 25.4721 580.99 27.0236 581.413 28.4932" fill="#2F2E41"/>
<path d="M573.202 5.84097C572.803 1.64097 567.658 -0.944714 563.634 0.323976C559.61 1.59267 556.969 5.64409 556.17 9.78678C555.786 11.5314 555.75 13.3348 556.064 15.0934C556.378 16.8521 557.036 18.5315 558.001 20.0352C558.998 21.5199 560.4 22.6871 562.041 23.3981C563.682 24.1091 565.493 24.3339 567.258 24.0459C571.238 23.1977 573.995 19.312 574.783 15.3203C575.572 11.3287 574.789 7.2134 574.007 3.22046" fill="#2F2E41"/>
<path d="M641.202 7.84097C640.803 3.64097 635.658 1.05529 631.634 2.32398C627.61 3.59267 624.969 7.64409 624.17 11.7868C623.786 13.5314 623.75 15.3348 624.064 17.0934C624.378 18.8521 625.036 20.5315 626.001 22.0352C626.998 23.5199 628.4 24.6871 630.041 25.3981C631.682 26.1091 633.493 26.3339 635.258 26.0459C639.238 25.1977 641.995 21.312 642.783 17.3203C643.572 13.3287 642.789 9.2134 642.007 5.22046" fill="#2F2E41"/>
<g filter="url(#filter0_d_1_3)">
<mask id="path-26-inside-1_1_3" fill="white">
<path d="M476.5 349.754H459V346.754C459 345.693 458.579 344.676 457.828 343.926C457.078 343.176 456.061 342.754 455 342.754H434C432.939 342.754 431.922 343.176 431.172 343.926C430.421 344.676 430 345.693 430 346.754V349.754H427V346.754C427 345.693 426.579 344.676 425.828 343.926C425.078 343.176 424.061 342.754 423 342.754H402C400.939 342.754 399.922 343.176 399.172 343.926C398.421 344.676 398 345.693 398 346.754V349.754H395V346.754C395 345.693 394.579 344.676 393.828 343.926C393.078 343.176 392.061 342.754 391 342.754H370C368.939 342.754 367.922 343.176 367.172 343.926C366.421 344.676 366 345.693 366 346.754V349.754H363V346.754C363 345.693 362.579 344.676 361.828 343.926C361.078 343.176 360.061 342.754 359 342.754H338C336.939 342.754 335.922 343.176 335.172 343.926C334.421 344.676 334 345.693 334 346.754V349.754H331V346.754C331 345.693 330.579 344.676 329.828 343.926C329.078 343.176 328.061 342.754 327 342.754H306C304.939 342.754 303.922 343.176 303.172 343.926C302.421 344.676 302 345.693 302 346.754V349.754H299V346.754C299 345.693 298.579 344.676 297.828 343.926C297.078 343.176 296.061 342.754 295 342.754H274C272.939 342.754 271.922 343.176 271.172 343.926C270.421 344.676 270 345.693 270 346.754V349.754H267V346.754C267 345.693 266.579 344.676 265.828 343.926C265.078 343.176 264.061 342.754 263 342.754H242C240.939 342.754 239.922 343.176 239.172 343.926C238.421 344.676 238 345.693 238 346.754V349.754H235V346.754C235 345.693 234.579 344.676 233.828 343.926C233.078 343.176 232.061 342.754 231 342.754H210C208.939 342.754 207.922 343.176 207.172 343.926C206.421 344.676 206 345.693 206 346.754V349.754H203V346.754C203 345.693 202.579 344.676 201.828 343.926C201.078 343.176 200.061 342.754 199 342.754H178C176.939 342.754 175.922 343.176 175.172 343.926C174.421 344.676 174 345.693 174 346.754V349.754H171V346.754C171 345.693 170.579 344.676 169.828 343.926C169.078 343.176 168.061 342.754 167 342.754H146C144.939 342.754 143.922 343.176 143.172 343.926C142.421 344.676 142 345.693 142 346.754V349.754H139V346.754C139 345.693 138.579 344.676 137.828 343.926C137.078 343.176 136.061 342.754 135 342.754H114C112.939 342.754 111.922 343.176 111.172 343.926C110.421 344.676 110 345.693 110 346.754V349.754H107V346.754C107 345.693 106.579 344.676 105.828 343.926C105.078 343.176 104.061 342.754 103 342.754H82C80.9391 342.754 79.9217 343.176 79.1716 343.926C78.4214 344.676 78 345.693 78 346.754V349.754H75V346.754C75 345.693 74.5786 344.676 73.8284 343.926C73.0783 343.176 72.0609 342.754 71 342.754H50C48.9391 342.754 47.9217 343.176 47.1716 343.926C46.4214 344.676 46 345.693 46 346.754V349.754H28.4999C20.9413 349.754 13.6922 352.757 8.34744 358.102C3.00267 363.446 0 370.696 0 378.254C0 380.509 0.895534 382.671 2.48959 384.265C4.08365 385.859 6.24566 386.754 8.5 386.754H496.5C498.754 386.754 500.916 385.859 502.51 384.265C504.104 382.671 505 380.509 505 378.254C505 370.696 501.997 363.446 496.653 358.102C491.308 352.757 484.059 349.754 476.5 349.754Z"/>
</mask>
<path d="M476.5 349.754H459V346.754C459 345.693 458.579 344.676 457.828 343.926C457.078 343.176 456.061 342.754 455 342.754H434C432.939 342.754 431.922 343.176 431.172 343.926C430.421 344.676 430 345.693 430 346.754V349.754H427V346.754C427 345.693 426.579 344.676 425.828 343.926C425.078 343.176 424.061 342.754 423 342.754H402C400.939 342.754 399.922 343.176 399.172 343.926C398.421 344.676 398 345.693 398 346.754V349.754H395V346.754C395 345.693 394.579 344.676 393.828 343.926C393.078 343.176 392.061 342.754 391 342.754H370C368.939 342.754 367.922 343.176 367.172 343.926C366.421 344.676 366 345.693 366 346.754V349.754H363V346.754C363 345.693 362.579 344.676 361.828 343.926C361.078 343.176 360.061 342.754 359 342.754H338C336.939 342.754 335.922 343.176 335.172 343.926C334.421 344.676 334 345.693 334 346.754V349.754H331V346.754C331 345.693 330.579 344.676 329.828 343.926C329.078 343.176 328.061 342.754 327 342.754H306C304.939 342.754 303.922 343.176 303.172 343.926C302.421 344.676 302 345.693 302 346.754V349.754H299V346.754C299 345.693 298.579 344.676 297.828 343.926C297.078 343.176 296.061 342.754 295 342.754H274C272.939 342.754 271.922 343.176 271.172 343.926C270.421 344.676 270 345.693 270 346.754V349.754H267V346.754C267 345.693 266.579 344.676 265.828 343.926C265.078 343.176 264.061 342.754 263 342.754H242C240.939 342.754 239.922 343.176 239.172 343.926C238.421 344.676 238 345.693 238 346.754V349.754H235V346.754C235 345.693 234.579 344.676 233.828 343.926C233.078 343.176 232.061 342.754 231 342.754H210C208.939 342.754 207.922 343.176 207.172 343.926C206.421 344.676 206 345.693 206 346.754V349.754H203V346.754C203 345.693 202.579 344.676 201.828 343.926C201.078 343.176 200.061 342.754 199 342.754H178C176.939 342.754 175.922 343.176 175.172 343.926C174.421 344.676 174 345.693 174 346.754V349.754H171V346.754C171 345.693 170.579 344.676 169.828 343.926C169.078 343.176 168.061 342.754 167 342.754H146C144.939 342.754 143.922 343.176 143.172 343.926C142.421 344.676 142 345.693 142 346.754V349.754H139V346.754C139 345.693 138.579 344.676 137.828 343.926C137.078 343.176 136.061 342.754 135 342.754H114C112.939 342.754 111.922 343.176 111.172 343.926C110.421 344.676 110 345.693 110 346.754V349.754H107V346.754C107 345.693 106.579 344.676 105.828 343.926C105.078 343.176 104.061 342.754 103 342.754H82C80.9391 342.754 79.9217 343.176 79.1716 343.926C78.4214 344.676 78 345.693 78 346.754V349.754H75V346.754C75 345.693 74.5786 344.676 73.8284 343.926C73.0783 343.176 72.0609 342.754 71 342.754H50C48.9391 342.754 47.9217 343.176 47.1716 343.926C46.4214 344.676 46 345.693 46 346.754V349.754H28.4999C20.9413 349.754 13.6922 352.757 8.34744 358.102C3.00267 363.446 0 370.696 0 378.254C0 380.509 0.895534 382.671 2.48959 384.265C4.08365 385.859 6.24566 386.754 8.5 386.754H496.5C498.754 386.754 500.916 385.859 502.51 384.265C504.104 382.671 505 380.509 505 378.254C505 370.696 501.997 363.446 496.653 358.102C491.308 352.757 484.059 349.754 476.5 349.754Z" fill="#BABABA"/>
<path d="M476.5 349.754H459V346.754C459 345.693 458.579 344.676 457.828 343.926C457.078 343.176 456.061 342.754 455 342.754H434C432.939 342.754 431.922 343.176 431.172 343.926C430.421 344.676 430 345.693 430 346.754V349.754H427V346.754C427 345.693 426.579 344.676 425.828 343.926C425.078 343.176 424.061 342.754 423 342.754H402C400.939 342.754 399.922 343.176 399.172 343.926C398.421 344.676 398 345.693 398 346.754V349.754H395V346.754C395 345.693 394.579 344.676 393.828 343.926C393.078 343.176 392.061 342.754 391 342.754H370C368.939 342.754 367.922 343.176 367.172 343.926C366.421 344.676 366 345.693 366 346.754V349.754H363V346.754C363 345.693 362.579 344.676 361.828 343.926C361.078 343.176 360.061 342.754 359 342.754H338C336.939 342.754 335.922 343.176 335.172 343.926C334.421 344.676 334 345.693 334 346.754V349.754H331V346.754C331 345.693 330.579 344.676 329.828 343.926C329.078 343.176 328.061 342.754 327 342.754H306C304.939 342.754 303.922 343.176 303.172 343.926C302.421 344.676 302 345.693 302 346.754V349.754H299V346.754C299 345.693 298.579 344.676 297.828 343.926C297.078 343.176 296.061 342.754 295 342.754H274C272.939 342.754 271.922 343.176 271.172 343.926C270.421 344.676 270 345.693 270 346.754V349.754H267V346.754C267 345.693 266.579 344.676 265.828 343.926C265.078 343.176 264.061 342.754 263 342.754H242C240.939 342.754 239.922 343.176 239.172 343.926C238.421 344.676 238 345.693 238 346.754V349.754H235V346.754C235 345.693 234.579 344.676 233.828 343.926C233.078 343.176 232.061 342.754 231 342.754H210C208.939 342.754 207.922 343.176 207.172 343.926C206.421 344.676 206 345.693 206 346.754V349.754H203V346.754C203 345.693 202.579 344.676 201.828 343.926C201.078 343.176 200.061 342.754 199 342.754H178C176.939 342.754 175.922 343.176 175.172 343.926C174.421 344.676 174 345.693 174 346.754V349.754H171V346.754C171 345.693 170.579 344.676 169.828 343.926C169.078 343.176 168.061 342.754 167 342.754H146C144.939 342.754 143.922 343.176 143.172 343.926C142.421 344.676 142 345.693 142 346.754V349.754H139V346.754C139 345.693 138.579 344.676 137.828 343.926C137.078 343.176 136.061 342.754 135 342.754H114C112.939 342.754 111.922 343.176 111.172 343.926C110.421 344.676 110 345.693 110 346.754V349.754H107V346.754C107 345.693 106.579 344.676 105.828 343.926C105.078 343.176 104.061 342.754 103 342.754H82C80.9391 342.754 79.9217 343.176 79.1716 343.926C78.4214 344.676 78 345.693 78 346.754V349.754H75V346.754C75 345.693 74.5786 344.676 73.8284 343.926C73.0783 343.176 72.0609 342.754 71 342.754H50C48.9391 342.754 47.9217 343.176 47.1716 343.926C46.4214 344.676 46 345.693 46 346.754V349.754H28.4999C20.9413 349.754 13.6922 352.757 8.34744 358.102C3.00267 363.446 0 370.696 0 378.254C0 380.509 0.895534 382.671 2.48959 384.265C4.08365 385.859 6.24566 386.754 8.5 386.754H496.5C498.754 386.754 500.916 385.859 502.51 384.265C504.104 382.671 505 380.509 505 378.254C505 370.696 501.997 363.446 496.653 358.102C491.308 352.757 484.059 349.754 476.5 349.754Z" stroke="#FF3D7A" stroke-width="2" mask="url(#path-26-inside-1_1_3)"/>
</g>
</g>
<defs>
<filter id="filter0_d_1_3" x="-4" y="342.754" width="513" height="52" filterUnits="userSpaceOnUse" color-interpolation-filters="sRGB">
<feFlood flood-opacity="0" result="BackgroundImageFix"/>
<feColorMatrix in="SourceAlpha" type="matrix" values="0 0 0 0 0 0 0 0 0 0 0 0 0 0 0 0 0 0 127 0" result="hardAlpha"/>
<feOffset dy="4"/>
<feGaussianBlur stdDeviation="2"/>
<feComposite in2="hardAlpha" operator="out"/>
<feColorMatrix type="matrix" values="0 0 0 0 0 0 0 0 0 0 0 0 0 0 0 0 0 0 0.25 0"/>
<feBlend mode="normal" in2="BackgroundImageFix" result="effect1_dropShadow_1_3"/>
<feBlend mode="normal" in="SourceGraphic" in2="effect1_dropShadow_1_3" result="shape"/>
</filter>
<clipPath id="clip0_1_3">
<rect width="699.247" height="386.754" fill="white"/>
</clipPath>
</defs>
</svg>
