<svg xmlns="http://www.w3.org/2000/svg" data-name="Layer 1" viewBox="0 0 64 64" id="birthday-cake"><line x1="32" x2="32" y1="10.62" y2="4.42" fill="none" stroke="#222" stroke-linecap="round" stroke-linejoin="round" stroke-width="3"></line><path fill="none" stroke="#222" stroke-linecap="round" stroke-linejoin="round" stroke-width="3" d="M29.5,10.62h5a1,1,0,0,1,1,1V21.79a0,0,0,0,1,0,0h-7a0,0,0,0,1,0,0V11.62A1,1,0,0,1,29.5,10.62Z"></path><polyline fill="none" stroke="#222" stroke-linecap="round" stroke-linejoin="round" stroke-width="3" points="9.16 36.65 9.16 48.01 54.84 48.01 54.84 36.65"></polyline><path fill="none" stroke="#222" stroke-linecap="round" stroke-linejoin="round" stroke-width="3" d="M13.63 21.79H50.38a6.12 6.12 0 0 1 6.12 6.12v4.55a6.13 6.13 0 0 1-6.12 6.13h0a6.13 6.13 0 0 1-6.13-6.13h0a6.13 6.13 0 0 1-6.12 6.13h0A6.13 6.13 0 0 1 32 32.46h0a6.13 6.13 0 0 1-6.12 6.13h0a6.13 6.13 0 0 1-6.13-6.13h0a6.13 6.13 0 0 1-6.12 6.13h0A6.13 6.13 0 0 1 7.5 32.46V27.91A6.12 6.12 0 0 1 13.63 21.79zM51.91 59.58H12.09a6 6 0 0 1-5.34-3.27L3.24 49.46A1 1 0 0 1 4.13 48H59.87a1 1 0 0 1 .89 1.45l-3.5 6.85A6 6 0 0 1 51.91 59.58z"></path></svg>