<svg xmlns="http://www.w3.org/2000/svg" enable-background="new 0 0 66 66" viewBox="0 0 66 66" id="task-list"><path d="M15.4053,65h35.1895c2.2461,0,4.0742-1.8276,4.0742-4.0742V14.102c0-2.2466-1.8281-4.0747-4.0742-4.0747h-5.8722
		c-0.0731-1.6188-1.402-2.9165-3.0389-2.9165h-2.6962C39.0568,3.7029,36.2997,1,33,1c-3.3051,0-6.0567,2.7086-5.9874,6.1108h-2.6962
		c-1.6369,0-2.9659,1.2977-3.0389,2.9165h-5.8722c-2.2461,0-4.0742,1.8281-4.0742,4.0747v46.8237
		C11.3311,63.1724,13.1592,65,15.4053,65z M33,3c2.2169,0,4.0501,1.8231,3.9922,4.1108h-7.9844C28.9499,4.8231,30.7832,3,33,3z
		 M23.2637,10.1636c0-0.5806,0.4727-1.0527,1.0527-1.0527c3.8587,0,13.1493,0,17.3672,0c0.5801,0,1.0527,0.4722,1.0527,1.0527
		v1.7217c0,0.5806-0.4727,1.0527-1.0527,1.0527H24.3164c-0.5801,0-1.0527-0.4722-1.0527-1.0527V10.1636z M13.3311,14.102
		c0-1.144,0.9307-2.0747,2.0742-2.0747h5.8727c0.076,1.616,1.4034,2.9106,3.0384,2.9106h17.3672
		c1.6349,0,2.9624-1.2946,3.0384-2.9106h5.8727c1.1436,0,2.0742,0.9307,2.0742,2.0747v46.8237c0,1.1436-0.9307,2.0742-2.0742,2.0742
		H15.4053c-1.1436,0-2.0742-0.9307-2.0742-2.0742V14.102z"></path><path d="M18.0068 29.5478h9.4307c.2764 0 .5-.2236.5-.5v-9.4312c0-.2764-.2236-.5-.5-.5h-9.4307c-.2764 0-.5.2236-.5.5v9.4312C17.5068 29.3242 17.7305 29.5478 18.0068 29.5478zM18.5068 20.1167h8.4307v8.4312h-8.4307V20.1167zM32.7607 22.6777h15.2324c.2764 0 .5-.2236.5-.5s-.2236-.5-.5-.5H32.7607c-.2764 0-.5.2236-.5.5S32.4844 22.6777 32.7607 22.6777zM32.7607 26.9868h7.665c.2764 0 .5-.2236.5-.5s-.2236-.5-.5-.5h-7.665c-.2764 0-.5.2236-.5.5S32.4844 26.9868 32.7607 26.9868zM18.0068 44.1846h9.4307c.2764 0 .5-.2236.5-.5v-9.4312c0-.2764-.2236-.5-.5-.5h-9.4307c-.2764 0-.5.2236-.5.5v9.4312C17.5068 43.9609 17.7305 44.1846 18.0068 44.1846zM18.5068 34.7534h8.4307v8.4312h-8.4307V34.7534zM32.7607 37.3144h15.2324c.2764 0 .5-.2236.5-.5s-.2236-.5-.5-.5H32.7607c-.2764 0-.5.2236-.5.5S32.4844 37.3144 32.7607 37.3144zM32.7607 41.6235h7.665c.2764 0 .5-.2236.5-.5s-.2236-.5-.5-.5h-7.665c-.2764 0-.5.2236-.5.5S32.4844 41.6235 32.7607 41.6235zM18.0068 58.8242h9.4307c.2764 0 .5-.2236.5-.5v-9.4312c0-.2764-.2236-.5-.5-.5h-9.4307c-.2764 0-.5.2236-.5.5v9.4312C17.5068 58.6006 17.7305 58.8242 18.0068 58.8242zM18.5068 49.3931h8.4307v8.4312h-8.4307V49.3931zM32.7607 51.9546h15.2324c.2764 0 .5-.2236.5-.5s-.2236-.5-.5-.5H32.7607c-.2764 0-.5.2236-.5.5S32.4844 51.9546 32.7607 51.9546zM32.7607 56.2632h7.665c.2764 0 .5-.2236.5-.5s-.2236-.5-.5-.5h-7.665c-.2764 0-.5.2236-.5.5S32.4844 56.2632 32.7607 56.2632z"></path><path d="M24.4941 51.8232l-2.5098 2.5103-1.0342-1.0337c-.1953-.1953-.5117-.1953-.707 0s-.1953.5117 0 .707l1.3877 1.3872c.0977.0977.2256.1465.3535.1465s.2559-.0488.3535-.1465l2.8633-2.8638c.1953-.1953.1953-.5117 0-.707S24.6895 51.6279 24.4941 51.8232zM24.4941 37.1836l-2.5098 2.5103-1.0342-1.0342c-.1953-.1953-.5117-.1953-.707 0s-.1953.5117 0 .707l1.3877 1.3877c.0938.0938.2207.1465.3535.1465s.2598-.0527.3535-.1465l2.8633-2.8638c.1953-.1953.1953-.5117 0-.707S24.6895 36.9883 24.4941 37.1836zM24.667 22.3872c-.1953-.1953-.5117-.1953-.707 0l-1.2378 1.2378-1.2378-1.2378c-.1953-.1953-.5117-.1953-.707 0s-.1953.5117 0 .707l1.2378 1.2378-1.2378 1.2378c-.1953.1953-.1953.5117 0 .707.0977.0977.2256.1465.3535.1465s.2559-.0488.3535-.1465l1.2378-1.2378 1.2378 1.2378c.0977.0977.2256.1465.3535.1465s.2559-.0488.3535-.1465c.1953-.1953.1953-.5117 0-.707l-1.2378-1.2378 1.2378-1.2378C24.8623 22.8989 24.8623 22.5825 24.667 22.3872z"></path></svg>